<?xml version="1.0" encoding="utf-8"?>
<!-- Generator: Adobe Illustrator 17.1.0, SVG Export Plug-In . SVG Version: 6.00 Build 0)  -->
<!DOCTYPE svg PUBLIC "-//W3C//DTD SVG 1.1//EN" "http://www.w3.org/Graphics/SVG/1.1/DTD/svg11.dtd">
<svg version="1.1" id="Layer_1" xmlns="http://www.w3.org/2000/svg" xmlns:xlink="http://www.w3.org/1999/xlink" x="0px" y="0px"
	 viewBox="0 0 115 40" enable-background="new 0 0 115 40" xml:space="preserve">
<path fill="#000000" d="M12.6,38.8c-3.5,0-6.8,0-10.2,0c0-0.3-0.1-0.6-0.1-0.8c0-8,0-16,0.1-24c0.1-6,3.8-10.6,9.5-11.9
	c0.5-0.1,0.9-0.2,1.4-0.2c8.3,0,16.5,0,24.8,0c0.3,0,0.7,0,1.2,0.1c0,0.9,0,1.7,0,2.6c0,7-0.1,14,0.1,20.9c0.1,3.9,1.7,7.2,5.5,8.9
	c0.1,0.1,0.3,0.1,0.4,0.1c0.1,0,0.1,0,0.3-0.1c-0.1-0.2-0.2-0.4-0.4-0.6c-3.6-4.5-4.5-9.4-2.4-14.7c2.2-5.3,6.3-8.5,12.1-8.9
	c5.4-0.3,10.8-0.2,16.1,0c4.7,0.2,8.8,3.8,10.1,8.3c0.5,1.8,1,3.7,1.7,5.6c0.1-0.3,0.3-0.7,0.4-1c1.2-3.9,2.4-7.9,3.6-11.9
	c0.3-0.9,0.7-1.3,1.7-1.3c1.9,0.1,3.8,0.1,5.6,0c1,0,1.4,0.3,1.7,1.2c1.2,4.1,2.5,8.2,3.7,12.3c0.1,0.3,0.2,0.5,0.5,1.1
	c0.4-1.3,0.6-2.2,0.9-3.1c0.9-3.5,1.9-7,2.8-10.5c0.1-0.4,0.5-0.9,0.8-0.9c2.9-0.1,5.7,0,8.8,0c-0.2,0.8-0.4,1.6-0.6,2.3
	c-2.6,8.5-5.2,16.9-7.7,25.4c-0.3,0.9-0.6,1.2-1.5,1.1c-2.1-0.1-4.3-0.1-6.4,0c-0.9,0-1.3-0.3-1.5-1.2c-1.3-4.2-2.6-8.4-3.9-12.6
	c-0.1-0.3-0.2-0.6-0.6-0.9c-0.3,1-0.7,2.1-1,3.1c-1.1,3.5-2.3,7.1-3.4,10.7c-0.2,0.6-0.5,0.9-1.2,0.8c-2.3,0-4.6,0-6.9,0
	c-0.7,0-1-0.3-1.2-0.9c-1.6-5.4-3.2-10.8-4.8-16.2c-0.8-2.7-2-5.1-4.5-6.7c-0.5-0.3-1-0.5-1.6-0.6c0.5,0.7,1.1,1.4,1.6,2.2
	c5.8,9,0.1,21-10.5,22.1c-2.3,0.2-4.6,0-7,0c-3.3,0-6.6,0-9.9,0c-6.2,0-11.6-5.4-11.6-11.6c0-5.1,0-10.2,0.1-15.3
	c0-1-0.3-1.3-1.3-1.3c-4.3,0.1-8.6,0-12.8,0c-1.9,0-2.7,0.9-2.7,2.7c0,0.8,0.1,1.7,0,2.5c-0.1,1.1,0.4,1.3,1.3,1.3
	c3.6,0,7.2,0,10.7,0c0.9,0,1.3,0.2,1.3,1.2c-0.1,2.3,0,4.6,0,7.1c-0.5,0-0.8,0.1-1.2,0.1c-3.5,0-7.1,0-10.6,0
	c-1.1,0-1.5,0.2-1.4,1.4c0.1,3.5,0.1,7.1,0.1,10.6C12.6,38,12.6,38.3,12.6,38.8z M56.2,29.3c2.8,0,4.9-2.1,5-4.9
	c0-2.7-2.2-4.9-4.9-5c-2.7,0-4.9,2.2-4.9,4.9C51.3,27.2,53.4,29.3,56.2,29.3z"/>
</svg>
